<svg xmlns="http://www.w3.org/2000/svg" width="128" height="128" viewBox="0 0 128 128" fill="none">
  <path d="M20 116c5-33 18-51 44-57 26 6 39 24 44 57H20Z" fill="#31243e" stroke="#a78bba" stroke-width="4"/><path d="m31 62 13-40 20-12 20 12 13 40-17 10H48L31 62Z" fill="#4b3063" stroke="#c4b5fd" stroke-width="4" stroke-linejoin="round"/><path d="M44 54c0-16 8-25 20-25s20 9 20 25L72 71H56L44 54Z" fill="#111827"/><path d="m51 54 9 4m8 0 9-4" stroke="#c084fc" stroke-width="5" stroke-linecap="round"/><path d="m57 67 7 8 7-8" fill="#f1f5f9"/><path d="M56 79h16l10 37H46l10-37Z" fill="#6b21a8"/><path d="M103 37v75m-8-74h16m-15-7 7-12 8 12" stroke="#a16207" stroke-width="5" stroke-linecap="round" stroke-linejoin="round"/><circle cx="103" cy="64" r="8" fill="#a855f7" stroke="#e9d5ff" stroke-width="3"/><path d="m64 89-7 10 7 9 7-9-7-10Z" fill="#c084fc"/>
</svg>
