<svg xmlns="http://www.w3.org/2000/svg" width="128" height="128" viewBox="0 0 128 128" fill="none">
  <path d="M47 43c0-17 7-26 17-26s17 9 17 26v10H47V43Z" fill="#e7dfc7" stroke="#fff7df" stroke-width="3"/><path d="m53 39 8 2m8 0 8-2" stroke="#1e293b" stroke-width="5" stroke-linecap="round"/><path d="m60 47 4 4 4-4" stroke="#785b42" stroke-width="3"/><path d="M49 56h30l12 18-8 34H45l-8-34 12-18Z" fill="#d8ceb5" stroke="#fff7df" stroke-width="3"/><path d="m64 58 0 49m-14-31 28 2m-27 13h27" stroke="#8f806b" stroke-width="4" stroke-linecap="round"/><path d="M100 32c-21 12-21 49 0 63m0-63v63" stroke="#a16207" stroke-width="5" stroke-linecap="round"/><path d="m30 51 74 15-1 4-74-15 1-4Z" fill="#cbd5e1" stroke="#f8fafc" stroke-width="2"/><path d="m102 66 12 3-13 2" fill="#f8fafc"/><path d="m53 108-5 12m27-12 5 12" stroke="#e7dfc7" stroke-width="7" stroke-linecap="round"/>
</svg>
