<svg xmlns="http://www.w3.org/2000/svg" width="128" height="128" viewBox="0 0 128 128" fill="none">
  <path d="M49 43c0-17 6-26 16-26s16 9 16 26v11H49V43Z" fill="#e7dfc7" stroke="#fff7df" stroke-width="3"/><path d="M54 41h8m8 0h8" stroke="#1e293b" stroke-width="5" stroke-linecap="round"/><path d="m61 47 4 4 4-4" stroke="#785b42" stroke-width="3" stroke-linejoin="round"/><path d="M51 57h28l13 16-8 37H44l-8-37 15-16Z" fill="#d8ceb5" stroke="#fff7df" stroke-width="3"/><path d="M51 61 40 76m39-15 12 15M64 59v48m-15-31 30 2m-29 14h28" stroke="#8f806b" stroke-width="4" stroke-linecap="round"/><path d="M22 68 17 34l8-2 7 32-10 4Z" fill="#cbd5e1" stroke="#f8fafc" stroke-width="2"/><path d="m17 33 5-17 4 17M15 78l13-8 8 14-15 9-6-15Z" fill="#64748b" stroke="#cbd5e1" stroke-width="3"/><path d="m53 109-5 11m27-11 5 11" stroke="#e7dfc7" stroke-width="7" stroke-linecap="round"/>
</svg>
